<svg width="50" height="50" viewBox="0 0 36.892 27" fill="none" xmlns="http://www.w3.org/2000/svg">
  <path d="M 5.4 0.015 C 3.626 0.3 2.178 1.446 1.258 3.288 C -0.653 7.12 -0.231 13.385 2.264 18.245 C 4.694 22.973 8.877 26.098 13.792 26.851 C 14.696 26.993 16.572 27.044 17.507 26.958 C 19.962 26.729 22.219 26.047 24.816 24.764 C 30.433 21.98 35.048 17.543 36.43 13.593 C 36.974 12.036 37.03 10.494 36.588 9.181 C 36.318 8.382 35.963 7.807 35.409 7.278 C 34.829 6.733 34.194 6.367 33.274 6.067 C 32.003 5.649 30.529 5.471 27.612 5.374 C 23.241 5.232 22.585 5.196 20.953 5.013 C 18.427 4.728 16.313 4.194 14.371 3.339 C 13.685 3.038 13.07 2.697 11.931 2 C 10.762 1.278 9.654 0.728 8.795 0.438 C 7.769 0.097 7.387 0.026 6.417 0.005 C 5.944 -0.005 5.486 0 5.4 0.015 Z" fill="#0094FF"/>
  <path d="M 17.41 11.934 L 20.889 11.934 L 20.889 18.151 L 19.398 18.151 L 19.398 13.401 L 17.41 13.401 L 17.41 11.934 Z M 16.239 16.343 C 16.025 16.129 15.904 15.84 15.904 15.538 L 15.904 9.544 L 14.413 9.544 L 14.413 15.538 C 14.414 16.234 14.691 16.902 15.185 17.394 C 15.678 17.886 16.347 18.163 17.045 18.164 L 18.251 18.164 L 18.251 16.677 L 17.045 16.677 C 16.743 16.676 16.453 16.556 16.239 16.343 Z M 13.515 11.933 L 11.694 11.933 L 9.042 15.703 L 9.042 9.544 L 7.551 9.544 L 7.551 18.067 L 9.2 18.067 L 10.661 15.991 L 12.121 18.067 L 13.942 18.067 L 11.571 14.697 L 13.515 11.933 Z M 20.71 9.473 C 20.554 9.317 20.348 9.223 20.128 9.207 C 19.908 9.191 19.69 9.254 19.513 9.385 C 19.336 9.516 19.212 9.706 19.164 9.92 C 19.116 10.134 19.147 10.359 19.25 10.553 C 19.354 10.746 19.524 10.896 19.73 10.975 C 19.935 11.054 20.163 11.057 20.37 10.983 C 20.577 10.909 20.751 10.763 20.86 10.572 C 20.968 10.381 21.004 10.157 20.961 9.942 C 20.926 9.764 20.838 9.601 20.71 9.473 Z M 25.891 14.985 L 28.037 11.934 L 26.216 11.934 L 24.981 13.69 L 23.746 11.934 L 21.925 11.934 L 24.07 14.985 L 21.905 18.063 L 23.727 18.063 L 24.981 16.28 L 26.239 18.068 L 28.06 18.068 L 25.891 14.985 Z" fill="white"/>
</svg>